# xmcd
#
# Track frame offsets:
#	150
#	24728
#	46044
#	65521
#	81055
#	100337
#	116317
#	138768
#	166883
#	189293
#	205405
#	219643
#	241078
#
# Disc length: 3514 seconds
#
# Revision: 1
# Processed by: cddbd v1.5.2PL0 Copyright (c) Steve Scherf et al.
# Submitted via: audiograbber 1.83.01
#
DISCID=a60db80d
DTITLE=Emmylou Harris - Live Ohne Filter
DYEAR=2000
DGENRE=Folk-Rock
TTITLE0=The Pearl
TTITLE1=Don´t Want To Talk About It Now
TTITLE2=Ain´t Living Long Like This
TTITLE3=Raise The Dead
TTITLE4=Red Dirt Girl
TTITLE5=Love Hurts
TTITLE6=Hour Of Gold
TTITLE7=Deeper Well
TTITLE8=Michelangelo
TTITLE9=Boy From Tupelo
TTITLE10=Wheels
TTITLE11=Born To Run
TTITLE12=Hichory Wind
EXTD=
EXTT0=
EXTT1=
EXTT2=
EXTT3=
EXTT4=
EXTT5=
EXTT6=
EXTT7=
EXTT8=
EXTT9=
EXTT10=
EXTT11=
EXTT12=
PLAYORDER=
